<svg xmlns="http://www.w3.org/2000/svg" viewBox="0 0 96 128">
  <path d="M48 4C27.565 4 11 20.565 11 41c0 28.5 31.11 66.574 35.447 71.754a2 2 0 0 0 3.106 0C53.89 107.574 85 69.5 85 41 85 20.565 68.435 4 48 4z" fill="#000"/>
  <circle cx="48" cy="41" r="27.5" fill="#fff" stroke="#000" stroke-width="3"/>
  <g fill="#000">
    <rect x="29" y="42" width="32" height="15" rx="3"/>
    <rect x="55" y="36" width="11" height="10" rx="2"/>
    <rect x="25" y="40" width="6" height="8" rx="2"/>
    <circle cx="36" cy="58" r="5.4"/>
    <circle cx="58" cy="58" r="5.4"/>
    <rect x="33" y="31" width="10" height="9" rx="1.5"/>
    <path d="M45 35c0-5 4-8 4-12 4 4 7 8 7 12 0 4-2.8 7-6 7s-5-2.3-5-7z"/>
  </g>
</svg>